<?xml version="1.0" encoding="UTF-8"?>
<svg version="1.1" viewBox="0 0 1092 1092" width="273" height="273" xmlns="http://www.w3.org/2000/svg">
<path transform="translate(543,101)" d="m0 0 6 3 15 12 18 13 17 11 21 12 23 11 23 9 21 7 28 7 33 6 37 4 42 2 45 1 1 5-4 53-5 46-7 50-8 44-7 34-7 29-10 37-12 36-8 23-13 32-11 24-8 16-14 26-8 13-10 16-16 23-14 18-11 13-18 20-18 18-8 7-10 9-26 20-24 16-24 14-18 10-7 3-8-1-23-12-25-15-19-13-19-14-14-12-11-9-32-32-7-8-11-13-15-20-13-18-11-18-9-15-10-18-10-19-16-36-11-27-11-31-12-39-9-34-11-49-8-45-7-49-6-56-3-40v-11l1-1 49-1 39-2 36-4 28-5 26-6 26-8 27-11 21-10 19-11 21-14 12-9 18-14zm0 13-11 9-16 12-22 14-25 14-26 12-21 8-26 8-30 7-32 5-27 3-42 2-39 1 3 40 3 32 5 40 7 46 8 42 9 41 3 12 2 1 21-6 12-2h29l20 3 25 5 17 2h13l-3-3-32-13-31-13-30-12-12-5-2-4v-2l68 14 29 6 30 7 3-1-5-4-25-14-13-7h-2v-6l11 2 38 9 38 10 6 1-5-5-16-10-14-9-60-38-20-13-41-26-21-13-5-4-1-5 10 4 34 18 112 60 15 9h2l-2-4-9-9-1-2h-2l-2-4-15-15-7-8-12-12-3-4h-2l-1-5 2-3 16 10 30 19 21 14h2l-2-4-12-13-10-11-7-8-9-10-12-13-9-11-7-7-7-8-12-14-14-15-7-8-11-13-1-4 2-1 5 3 10 9 12 11 20 18 10 10h2v-70l3-5 1-4 9 1 19 2h12l17-3 18-4 15-2 29-1 1-28h7v26l1 2 25 1 24 3 26 5 8 1h13l14-2 9-2v5l3 3v72l4-2 8-8 8-7 15-14 12-11 10-8 4-1v5l-14 15-7 8-12 14-5 5v2h-2l-7 8-11 12-9 11-9 9-7 8-10 11-9 11-16 17-2 4 5-2 16-10 17-11 23-15 7-4 4-1v5l-19 19v2h-2l-7 8-18 18v2h-2l-7 8-1 4 14-7 16-9 23-12 22-12 28-15 46-25 19-10 4-1v5l-15 10-26 16-17 11-50 32-19 12-17 11-24 15-15 10 4 1 16-5 51-12 20-5h4l-2 5-10 6-12 6-14 8-8 6 3 1 24-6 73-15 23-5 7-1-1 5-11 5-27 11-37 15-21 9-13 6v1h13l22-3 29-6 8-1h35l15 3 12 4h4l11-47 9-47 6-39 5-38 5-49 2-23v-10l-44-1-37-2-28-3-26-4-32-7-26-8-22-8-26-12-22-12-19-12-14-10-17-13-4-3zm-26 90-27 4-26 5-19 1h-17v76l1 2h24l20-3 27-5 6-1h21l8 1 1-1 1-23v-55l-5-1zm36 0-2 6 1 65 1 9h36l38 7 9 1h24v-78l-2-1-9 1h-15l-21-3-27-5-21-2zm-140 89m1 1 2 4 15 16 7 8 7 7 7 8 13 14 9 11 10 10 7 8 9 11 1 6-5-1-15-10-18-11-12-8-13-8-5-2 3 5 8 7 16 16 7 8 15 15 3 7v2l-10-4-18-10-23-12-16-9-28-14-2 1 14 9 22 13 19 12 48 30 7-19 6-10 9-10 10-6 8-3-3-10-20-41-2-1 2 10 10 33 2 11-5-2-13-12-8-7-15-14-8-7-16-15-12-11-17-16-11-9zm84 1 1 5 11 25 10 21 7 15 4 6h1l2-49v-19l-6-2-12-2zm75 0-17 3-2 1v13l2 43 1 12 3-4 20-41 11-25v-2zm100 0-11 9-8 8-8 7-15 14-8 7-24 22-17 16-8 7-5 2 1-8 11-42-1-4-15 32-8 18 4 3 9 4 8 6 6 7 7 12 6 18 4-1 27-18 23-14 24-15 28-17 2-2-5 1-17 9-16 8-22 12-25 13-13 7h-3l1-6 21-21 7-8 15-15 8-7 1-2-5 1-41 26-19 12-6 2 4-9 7-8 10-10 7-8 9-10 9-11 9-9 7-8 14-15 9-10 3-3zm-74 2-12 42-7 25-1 8 7-6 12-12 8-7 16-15 12-11 16-14 1-3-11-2-27-4zm-116 0-42 6-4 2 7 7 8 7 13 12 24 22 13 12 7 6-1-8-12-44-6-21-1-1zm59 2-1 1-3 56-1 26 1 2h11l2-1v-13l-3-61-1-8-2-2zm-110 57m273 9m-321 1m2 1m150 23-10 3-9 6-8 8-8 15-5 16 1 4 32-2h36l27 1-2-12-6-15-8-11-9-8-9-4-7-1zm-75 8m-51 25 5 4 16 8 20 11 2 2v3l-11-1-54-11-38-8-11-1 4 3 40 15 23 10 13 5 11-1 19-5 38-13 2-3-6-2-36-9-26-6-4-1zm267-1-38 9-39 9v3l11 4 23 8 12 4 18 4h7l43-18 29-11 9-4-3-1-59 12-38 8-10 2h-7v-4l5-2 18-10 20-11 1-2zm-142 24-25 1-17 2-15 4-28 10-20 5-12 2-12 1h-17l-17-2-36-7-7-1h-31l-19 4-12 4 1 5 8-1 15-4 21-2 20 1 26 5 27 5h25l20-3 19-5 36-12 18-3 12-1h60l20 2 19 5 36 12 27 5h25l16-2 28-6 15-2 19-1 20 2 16 5 5-1v-4l-15-5-16-3h-28l-22 3-28 6-10 1h-21l-19-2-21-5-34-12-13-3-15-2-25-1zm-12 13-23 2-20 4-27 10-19 5-18 3-11 1h-16l-17-2-33-7-22-2-21 1-18 4-8 3 1 5 11-2 13-3 9-1h20l21 3 34 7 10 1h15l25-3 19-5 20-7 19-6 23-3 19-1h35l28 2 17 4 28 10 19 5 16 3 12 1h13l24-3 29-6 17-2h20l14 2 15 4 2-4-8-4-17-4h-33l-21 3-31 6-11 1h-14l-19-2-22-5-29-10-12-4-19-3-13-1zm0 13-32 3-12 3-23 9-23 6-21 3h-32l-22-4-25-5-12-1h-17l-19 3-11 3v5h7l14-3 10-1h19l22 3 34 7 21 1 20-2 20-4 16-5 19-7 15-4 19-2 23-1h24l25 1 20 3 30 10 20 6 20 4h34l19-3 24-5 19-2h19l14 2 12 3 1-5-7-3-13-3-10-1h-14l-20 2-37 7-8 1h-33l-23-4-33-11-11-4-14-3-20-2zm-1 13-25 2-15 3-34 12-16 4-22 3h-26l-25-4-24-5-8-1h-25l-22 4-3 1 1 5 11-1 12-2h28l24 4 24 5 7 1h28l24-4 21-6 21-8 17-4 23-2h58l24 3 19 6 26 9 24 5 9 1h25l24-4 26-5 8-1h30l15 3h4l1-4-7-3-16-3h-25l-30 5-21 4-9 1h-27l-25-4-26-8-19-7-21-4-12-1zm-4 13-23 2-19 5-33 11-25 5-11 1h-22l-15-2-31-6-14-2h-23l-20 3-1 4 6 18 5 1 13-1h19l23 3 30 6 9 1h25l19-3 22-6 33-11 18-3 13-1h57l20 2 14 3 28 10 19 5 15 3 10 1h24l18-3 31-6 10-1h24l14 1 7-18v-4l-13-3-9-1h-20l-23 3-26 5-17 2h-22l-21-3-15-4-36-12-20-4-12-1zm8 31-28 2-14 3-42 14-21 4-8 1h-30l-24-4-26-5-8-1h-23l-12 1 3 7 14-1h17l17 2 35 7 8 1h29l19-3 21-6 33-11 9-2 20-2h63l22 3 19 6 22 8 21 5 16 2h27l23-4 26-5 12-1h29l2-2v-4l-12-1h-19l-23 3-31 6-8 1h-29l-19-3-19-5-20-7-15-5-19-3-13-1zm-1 13-21 1-17 3-16 5-27 9-23 5-8 1h-29l-19-3-30-6-8-1h-26l-5 1 1 5 1 1h31l30 5 20 4 8 1h24l24-4 26-8 24-8 15-3 31-2h23l25 1 22 3 19 6 27 9 17 4 17 2h21l20-3 25-5 16-2 28-1 2-5-4-1h-24l-23 3-30 6-8 1h-28l-20-3-21-6-32-11-18-3-16-1zm-10 13-24 3-15 4-25 9-20 5-11 2-12 1h-24l-24-4-25-5-9-1h-25l1 6 24 1 22 3 30 6 8 1h23l21-3 19-5 31-11 20-4 10-1 22-1h27l31 2 15 3 20 7 22 7 18 4 13 2h22l21-3 23-5 18-2 23-1 3-4v-2h-24l-24 3-30 6-10 1h-23l-21-3-21-6-32-11-17-3-11-1zm12 12-24 2-18 3-42 14-19 4-18 2h-18l-26-4-25-5-24-2h-7l1 5 1 1 31 3 31 6 19 3h16l24-3 19-5 20-7 18-6 20-3 14-1h52l21 2 17 4 28 10 19 5 16 3 11 1h11l19-2 35-7 31-3 3-6h-10l-28 3-30 6-18 2h-16l-17-2-22-5-39-13-14-3-25-2zm20 13-36 1-18 2-16 4-28 10-21 5-15 2-20 1-19-2-37-7-16-2h-9l3 10 7 14 1 1 26 4 32 6 11 1h10l19-2 19-4 36-12 21-5 22-2h47l25 2 18 4 22 8 25 7 18 3 20 1 19-2 38-7 14-2 5-8 7-15v-2l-18 1-36 6-19 3h-33l-17-3-24-7-27-9-15-3-9-1zm-7 31-27 1-24 3-16 5-20 7-18 5-19 3-13 1h-15l-21-3-34-7h-6l2 6 1 1 24 4 31 6h22l23-3 25-7 28-10 16-3 8-1 22-1h34l21 1 18 3 45 15 24 5 8 1h20l22-3 29-6 9-2 3-6-17 2-32 6-20 2h-12l-18-2-21-5-42-14-20-3-21-1zm-4 13-34 2-14 2-16 5-30 10-19 4-23 2-20-1-25-5-21-4 1 5 5 3 40 8 21 1 20-2 15-3 21-6 22-8 17-4 22-2h54l22 2 19 5 25 9 28 7 7 1h32l19-3 25-5 5-5v-2l-11 1-31 6-8 1h-32l-25-5-36-12-21-5-26-2zm-6 13-32 2-18 4-31 11-22 5-14 2h-31l-23-4-12-3h-5l2 5 8 3 23 5 8 1h31l23-4 20-6 21-8 17-4 20-2h60l19 2 16 4 31 11 26 6 8 1h29l19-3 18-4 5-5v-3l-24 5-21 3h-27l-20-3-21-6-28-10-16-3-26-2zm224 2m-235 11-23 2-20 5-28 10-23 5-16 2h-22l-21-3-15-3 1 4 3 3 18 4 15 2h22l15-2 25-6 31-11 19-4 31-2h24l26 1 20 3 16 5 30 10 17 4 18 2h16l17-2 17-3 6-7-2-1-20 4-23 2h-12l-19-2-18-4-42-14-16-3-13-1zm-6 13-22 3-16 4-22 8-25 6-13 2h-37l-11-2h-5l2 5 14 19 3 3 4 1h22l17-2 25-6 35-12 16-3 10-1h69l21 3 16 5 19 7 19 5 18 3 17 1h16l5-3 11-15 7-10-2-1-18 3h-36l-19-3-27-8-24-8-17-3-9-1zm-152 20m157 11-22 2-20 5-28 10-17 4-25 3h-19l2 5 3 2h18l17-2 27-7 24-9 16-4 18-2 18-1h31l28 2 15 3 18 6 20 7 22 5 20 2h13l5-6-31-2-18-3-19-5-27-10-20-4-13-1zm-6 13-22 3-15 4-22 8-19 5-18 3-16 1-2 2 6 5 20-2 19-4 45-15 20-3 25-1h26l22 1 16 2 15 4 28 10 21 5 24 3 5-4v-2l-31-4-20-5-35-12-16-3-10-1zm28 12-26 1-25 3-15 4-21 8-19 5-22 3-3 2 4 4h10l23-5 20-7 21-7 21-3 24-1h22l27 1 21 3 42 14 27 6 4-1 4-4v-1l-25-4-21-6-30-10-15-3-10-1zm-16 13-24 2-17 3-28 10-22 6-12 2v3l3 2h8l23-6 18-7 18-5 15-2 14-1h52l20 2 14 3 39 13 15 4 5-1 3-4-7-2-21-5-36-12-14-3-20-2zm-4 13-25 2-19 5-25 9-17 4-2 2 8 8 11 9 9 7 6-2 17-6 16-3 29-2h40l23 2 18 4 16 6 4 1 13-11 14-12 1-2-23-6-33-11-17-3-13-1zm2 39-24 2-19 4-12 5 2 4 8-1 16-4 16-2 16-1h41l17 1 24 4 9 3 4-1 2-3-13-5-19-4-19-2zm-4 13-23 2-16 4v3l6 2 22-3 16-1h48l28 3h9l3-2v-2l-12-3-28-3zm24 12-29 1-20 2v3l6 3 17-1h61l13 1 6-3-1-3-19-2zm-12 13-21 1v2l8 4h55l8-5v-1l-22-1zm1 13 5 5 6 3 7-1 8-5v-2z" fill="#2763BD"/>
<path transform="translate(164,667)" d="m0 0h26l22 5 19 7 16 8 12 9 8 9 3 7v9l-4 11-6 9-9 9-5 2v3l5 2 15 8 23 9 46 16 25 11 76 38 25 10 25 7 18 3 13 1h50l25-2 23-5 21-7 25-11 20-10 17-9 16-8 25-12 26-10 43-15 20-9 14-7h2v-3l-4-2-11-11-8-13-2-5v-10l5-9 4-5 12-9 17-9 17-6 19-5 6-1h25l9 4 8 7 6 9 5 8 5 6 14 11 9 6 20 9 1 4-7 33-2 1-28-15-16-8-9 6-13 12-5 5 1 4 8 9 8 13 3 10-1 13-4 9-4 6-8 9-11 8-12 6-55 16-30 9-43 15-34 14-24 11-24 12-24 14-23 11-18 6-18 4-20 3-26 2h-37l-34-3-25-5-16-5-21-9-25-14-23-12-29-14-35-14-37-13-28-9-63-18-14-7-10-8-8-8-6-10-3-8v-12l4-11 7-11 8-10-1-4-15-15-10-7-9 3-21 12-13 7h-4l-6-32 1-5 16-7 15-10 13-11 7-8 6-11 6-7zm3 10-8 4-8 9v5l7 8 13 8 7 4-5 4-17 11-6 4 5 5 13 12 7 8 5-3 14-11 16-10 7-2 20-2 15-5 8-7-1-7-7-9-13-9-17-8-23-7-11-2zm733 0-19 4-22 8-16 9-10 9-4 5-1 6 5 6 8 4 16 4 14 1 10 4 18 11 12 11 4-2 7-8 9-8 8-6-4-4-23-14h-2l3-3 13-8 10-9 2-2-1-5-6-8-6-4-3-1zm-757 27-15 13-15 10-14 7 2 15 6-1 21-12 24-15 6-4v-2l-8-7h-2l-2-4zm800 0-13 12 5 4 19 12 18 10 10 6 5 1 2-8v-7l-15-8-12-8-11-9-5-5zm-105 34 5 5 7 6 5-2 3-5-17-4zm-595 1-10 3v4l5 1 8-6v-2zm-28 5-12 7-12 9-13 12-10 11-7 11-3 8v7l3 9 7 9 9 8 12 7 24 7 42 12 38 12 38 14 26 11 26 12 21 11 23 13 16 8 19 7 21 5 34 4 15 1h25l28-2 26-4 22-6 19-8 21-11 16-9 23-12 31-14 26-10 30-11 48-15 43-12 13-5 10-6 9-8 7-11 1-3v-12l-7-14-9-10-7-8-10-9-13-9-10-6-4 1-11 10-13 9-23 12-24 9-43 15-25 11-78 39-23 9-21 6-21 4-10 1h-67l-18-2-22-5-24-8-26-12-38-19-17-9-22-10-29-11-35-12-23-10-16-9-19-14-5-5z" fill="#1F5EBB"/>
<path transform="translate(593,217)" d="m0 0h9l14 2 9 5 6 9 3 10v9l-1 11 5 2 1 1-1 10-3 2h-24l-5-2 3-7 5-13 1-4v-10l-6-5-5-2h-12l-8 4-2 3v10l3 10 5 10 1 4-2 2h-27l-3-5-1-6 2-3h5l-2-11v-13l5-10 4-5 10-6zm-4 7-8 3-8 7-4 9v10l5 15 5 4h2l-1-5-4-10-1-4v-12l5-7 10-5h16l8 3 5 4 3 7-1 13-5 13v2h5l4-10 2-12-1-10-5-8-7-5-6-2z" fill="#2462BC"/>
<path transform="translate(475,223)" d="m0 0h14l5 4 14 27 8 16v4h-25l-4-6h-14l-7 6h-22l-1-4 19-38 6-8zm-1 7-4 2-6 10-11 22v3l8 1 5-5 1-3h23l4 6 7 2 5-1-2-6-13-25-4-5-2-1z" fill="#2361BC"/>
<path transform="translate(403,991)" d="m0 0h27l1 4-1 1h-21l-1 11h21v5h-21v12h23l1 5h-29z" fill="#2965BE"/>
<path transform="translate(604,990)" d="m0 0 8 2 4 5v14l2 4-1 9-7 6-6 1-7-3-4-5v-10l1-2h2l-1-5-1-2v-7l4-5zm-1 4-3 2-1 8 2 3 9-1 1-7-5-5zm-2 17-3 4v6l5 5 6-1 3-3 1-5-2-5-3-1z" fill="#306AC0"/>
<path transform="translate(635,991)" d="m0 0h10l5 5 1 6-5-3-4-3h-5l-4 4-1 6 11-2 6 4 3 4v9l-4 6-4 3-6 1-6-3-4-5-2-6v-12l3-8 4-5zm2 18-5 3v8l3 5 6 1 5-4 1-7-3-5-1-1z" fill="#2B66BE"/>
<path transform="translate(216,787)" d="m0 0 9 3 8 5v8l-4 12-4 4h-7l-12-6 1-7 8-18zm3 7-2 4 2 3 5 2h3v-5l-3-3zm-5 10-1 1v6l5 3 5-1 1-5-7-4z" fill="#326CC1"/>
<path transform="translate(510,991)" d="m0 0 5 1v35l-3 2-5 1h-8l-6-4-3-7v-9l4-7 3-2 12 1v-10zm-10 14-5 5v9l4 6 5 1 5-4v-13l-3-3z" fill="#336CC1"/>
<path transform="translate(847,804)" d="m0 0 6 1 3 5v13l5 2 2 4-1 1h-7l-6-6-6-1 2 7v4l-5 1-3-7-4-13v-7zm-4 6-3 2v5l3 2 6-3 1-5-1-1z" fill="#336CC1"/>
<path transform="translate(462,895)" d="m0 0 15 4 4 3v8l-5 5h-2l3 9v4l-5-1-5-10v-2l-5-2-1 9-5 1-2-1 1-7 5-17zm3 7v7l5 2 4-1 1-5-4-3z" fill="#306AC0"/>
<path transform="translate(311,831)" d="m0 0 9 1 7 4 2 3v12l-4 6-6 4h-7l-6-3-3-3-2-6 1-8 6-8zm2 6-4 4-2 5 1 6 3 3h7l5-6v-7l-4-5z" fill="#336CC1"/>
<path transform="translate(564,906)" d="m0 0h10l6 4 3 7-1 10-5 6-4 2h-9l-6-5-3-6v-8l4-7zm1 5-4 6 1 8 4 4h6l4-4v-9l-4-5z" fill="#336CC1"/>
<path transform="translate(606,902)" d="m0 0 5 1 2 9 1 17-1 1h-5l-7-8-4-5 1 15-4 1-2-2-2-13-1-14 7 1 10 13h1z" fill="#376FC2"/>
<path transform="translate(695,862)" d="m0 0h4l12 23-3 3-6-1-13-7 7 12-2 4h-3l-12-22 1-4h6l12 8v-3l-4-9z" fill="#336CC1"/>
<path transform="translate(723,849)" d="m0 0 9 1 5 5 3 5v10l-5 5-4 3-7 1-8-5-4-10 1-8 5-5zm1 5-5 3-1 7 3 6 4 3 6-1 3-4-1-9-4-4z" fill="#326CC1"/>
<path transform="translate(370,856)" d="m0 0 5 1 12 5 2 5-1 2-6-2-6-3h-3l1 4 9 6 1 2-1 2-9-3-5-2v6l10 5 1 5-7-1-13-7-1-2 10-22z" fill="#346DC1"/>
<path transform="translate(435,885)" d="m0 0 5 1 13 5 1 4-1 2-4-1-9-3h-2v4l11 5-1 5-6-2-4-2-4 1v4l10 4 1 1v5l-2 1-16-7-1-1 1-7z" fill="#376FC2"/>
<path transform="translate(409,874)" d="m0 0 9 2 5 3 1 2v7h-3l-7-7-4-2 3 7 7 6 1 3-4 8-1 1h-8l-8-5-2-3 1-7h3l6 9h5l-1-4-2-4-4-2-2-3 1-6 2-4z" fill="#3A71C3"/>
<path transform="translate(518,907)" d="m0 0h19l2 1-1 5-13-1-1 6h12l1 5h-14v6l10 1h4v5h-14l-6-1-1-2 1-24z" fill="#336CC1"/>
<path transform="translate(677,990)" d="m0 0 3 1 1 24 5 2v2l-4 2-3 9h-3l-1-9-15-1-1-4 6-10zm-3 11-5 6-3 5v4h7l2-1 1-11z" fill="#2E69BF"/>
<path transform="translate(632,895)" d="m0 0 5 1v4l-11 4-1 4 2 1 12-4 1 4-8 4-3 1v5l8-1 4-2 4 1v4l-18 6-3-2-6-18-1-7z" fill="#2D68BF"/>
<path transform="translate(817,813)" d="m0 0h5v5l-12 4 1 4 7-1 3-2 4 1-1 4-10 4h-2l2 5 7-1 4-2h4l1 5-17 6-3-1-6-16-2-6v-4z" fill="#306AC0"/>
<path transform="translate(786,823)" d="m0 0 5 1 5 12 4 11-1 3-5-1-3-9-7 3-2 2 3 9-2 2-4-1-5-12-4-12 2-2h4l4 9 8-2-2-8z" fill="#2E69BF"/>
<path transform="translate(656,883)" d="m0 0h6l12 9 10 8-1 2h-7l-5-1-5 3-1 9-5 1-4-19-1-10zm5 8 1 7 4 1 2-1-1-4-4-3z" fill="#336CC1"/>
<path transform="translate(447 1e3)" d="m0 0h8l4 2 3 6v3l-4-2-6-4h-4l-2 5 9 3 7 2 1 1v9l-6 5-9 1-6-5-1-2v-6l7 6 7 1h2v-5l-12-5-4-3 1-8z" fill="#3E74C4"/>
<path transform="translate(478,235)" d="m0 0 4 1 7 14 1 8-22 1 1-8 7-14zm0 13-1 3h2l1-3z" fill="#2663BD"/>
<path transform="translate(339,842)" d="m0 0 4 1 2 2-1 14-1 5 8-7 6-7 5 1-2 5-14 15-2 2-6-1-1-9z" fill="#2D68BF"/>
<path transform="translate(487,902)" d="m0 0 5 1 2 3 2 15 3-3 6-11 2-2h4l-1 6-8 15-4 5h-5l-2-3-4-20z" fill="#306AC0"/>
<path transform="translate(244,799)" d="m0 0 5 3 1 1 1 11 11-7 4 2-1 3-11 8-7 10h-5l1-6 1-3z" fill="#316BC0"/>
<path transform="translate(477,992)" d="m0 0 3 3v4l3 3-1 4-1 2h-2l1 12 4 7v3h-6l-4-4-2-24 3-9z" fill="#346DC1"/>
<path transform="translate(758,834)" d="m0 0 4 1-1 4-3 1v7l6 15-3 2h-3l-8-18h-8l-1-4 10-5z" fill="#376FC2"/>
<path transform="translate(283,817)" d="m0 0 5 2-1 6-6 14 3 3 7 3 1 4-3 1-11-4-5-3 1-6z" fill="#366EC2"/>
<path transform="translate(573,991)" d="m0 0h3l1 6v21l-1 11h-4l-1-4v-24l-6 3-4-1 10-10z" fill="#4176C5"/>
<path transform="translate(528,1023)" d="m0 0 4 1 1 4-1 1h-5v-5z" fill="#3E74C4"/>
</svg>
